<svg width="512" height="512" viewBox="0 0 512 512" fill="none" xmlns="http://www.w3.org/2000/svg">
<rect width="512" height="512" rx="128" fill="#FAFAFA"/>
<path d="M94.0061 357.965C94.0061 357.954 418.639 357.953 418.648 357.965C384.716 411.961 324.639 448 256.327 448C188.015 448 127.88 411.872 94.0061 357.965ZM260.625 350.539L260.635 260.098C260.635 260.098 447.776 260.121 447.767 260.111C447.245 291.817 438.849 322.895 423.339 350.539C423.342 350.524 260.625 350.539 260.625 350.539ZM168.151 260.101L252.805 260.109V350.127L90.25 350.506L168.151 260.101ZM260.625 161.835C260.625 161.835 423.343 161.85 423.337 161.835C438.847 189.479 447.242 220.556 447.765 252.262C447.774 252.251 260.633 252.275 260.633 252.275L260.625 161.835ZM174.916 252.242L252.81 161.839L252.77 252.243L174.916 252.242ZM94.0053 154.032C127.881 100.125 188.015 64 256.326 64C324.637 64 384.716 100.039 418.647 154.035C418.642 154.039 352.949 154.041 280.667 154.041C192.265 154.042 94.0061 154.039 94.0061 154.032L94.0053 154.032Z" fill="#27272A"/>
</svg>
